<svg width="1440" height="267" viewBox="0 0 1440 267" fill="none" xmlns="http://www.w3.org/2000/svg">
<path d="M522.18 205.016H501.543C499.099 205.016 497.198 204.473 495.84 203.386C494.482 202.3 493.396 200.671 492.582 199.042L481.72 169.715H421.98L411.118 199.042C410.575 200.671 409.489 202.029 407.86 203.115C406.231 204.473 404.33 205.016 402.157 205.016H381.248L438.273 61.0972H465.699L522.18 205.016ZM429.04 150.707H474.931L457.281 102.643C456.466 100.471 455.652 98.0272 454.565 95.0402C453.479 92.0532 452.665 89.0662 451.85 85.5362C451.035 88.7947 449.949 92.0532 449.135 95.0402C448.32 98.0272 447.234 100.471 446.419 102.643L429.04 150.707Z" fill="#FBFBFC"/>
<path d="M553.951 61.0972C554.765 61.0972 555.58 61.3687 556.123 61.6403C556.666 61.9118 557.481 62.4549 558.024 62.998C558.567 63.5411 559.382 64.3557 559.925 65.1703L635.414 161.569C635.143 159.125 634.871 156.952 634.871 154.78C634.871 152.608 634.6 150.435 634.6 148.534V61.0972H658.224V205.016H644.647C642.474 205.016 640.845 204.744 639.487 203.93C638.13 203.386 636.772 202.029 635.414 200.399L559.925 104.544C560.196 106.717 560.196 108.889 560.468 110.79C560.468 112.962 560.739 114.863 560.739 116.492V205.016H537.115V61.0972H551.235C552.322 61.0972 553.136 61.0972 553.951 61.0972Z" fill="#FBFBFC"/>
<path d="M814.09 205.016H793.453C791.009 205.016 789.108 204.473 787.751 203.386C786.393 202.3 785.307 200.671 784.492 199.042L773.63 169.715H713.89L703.029 199.042C702.486 200.671 701.399 202.029 699.77 203.115C698.141 204.473 696.24 205.016 694.068 205.016H673.159L729.64 61.0972H757.066L814.09 205.016ZM720.951 150.707H766.842L749.191 102.915C748.377 100.743 747.562 98.2987 746.476 95.3118C745.39 92.3248 744.575 89.3378 743.76 85.8077C742.946 89.0662 741.859 92.3248 741.045 95.3118C740.23 98.2987 739.144 100.743 738.329 102.915L720.951 150.707Z" fill="#FBFBFC"/>
<path d="M855.637 183.021H913.204V205.016H828.754V61.0972H855.637V183.021V183.021Z" fill="#FBFBFC"/>
<path d="M973.215 149.078V205.016H946.332V149.078L893.924 61.0972H917.548C919.992 61.0972 921.622 61.6403 922.979 62.7264C924.337 63.8126 925.423 65.1703 926.509 67.0711L952.849 115.135C954.479 118.121 955.565 120.565 956.922 123.281C958.009 125.725 959.095 128.44 959.909 130.884C960.724 128.44 961.81 125.725 962.896 123.281C963.983 120.837 965.34 118.121 966.698 115.135L992.766 67.0711C993.581 65.7134 994.667 64.3557 996.025 62.998C997.383 61.6403 999.283 61.0972 1001.73 61.0972H1025.35L973.215 149.078Z" fill="#FBFBFC"/>
<path d="M1141.03 61.0972V83.0923H1097.58V205.016H1070.97V83.0923H1027.52V61.0972H1141.03Z" fill="#FBFBFC"/>
<path d="M1188.28 205.016H1161.4V61.0972H1188.28V205.016Z" fill="#FBFBFC"/>
<path d="M1319.43 171.073C1320.79 171.073 1322.15 171.616 1323.24 172.702L1333.83 184.107C1327.85 191.439 1320.79 196.87 1312.37 200.671C1303.96 204.473 1293.64 206.374 1281.69 206.374C1271.1 206.374 1261.32 204.473 1252.91 200.943C1244.49 197.413 1237.16 192.253 1231.18 185.736C1225.21 179.219 1220.59 171.344 1217.33 162.383C1214.08 153.422 1212.45 143.375 1212.45 132.785C1212.45 121.923 1214.35 112.148 1217.88 103.187C1221.41 94.2258 1226.57 86.351 1233.08 79.8339C1239.6 73.3168 1247.47 68.1575 1256.44 64.6274C1265.4 61.0973 1275.44 59.1965 1286.58 59.1965C1297.17 59.1965 1306.67 60.8258 1314.55 64.3559C1322.42 67.886 1329.48 72.2307 1335.18 77.9331L1326.22 90.4241C1325.68 91.2388 1325.14 91.7819 1324.05 92.5965C1323.24 93.1396 1322.15 93.4111 1320.52 93.4111C1318.89 93.4111 1317.53 92.868 1315.9 91.5103C1314.27 90.4241 1312.37 89.0664 1309.93 87.7087C1307.49 86.351 1304.5 84.9933 1300.7 83.9071C1296.9 82.8209 1292.28 82.0063 1286.31 82.0063C1279.52 82.0063 1273.27 83.0924 1267.57 85.5363C1261.87 87.9802 1256.98 91.2388 1252.91 95.5835C1248.83 99.9282 1245.57 105.359 1243.4 111.605C1241.23 117.85 1239.87 124.91 1239.87 132.785C1239.87 140.931 1240.96 147.992 1243.4 154.509C1245.57 160.754 1248.83 166.185 1252.63 170.53C1256.44 174.874 1261.05 178.133 1266.48 180.305C1271.91 182.478 1277.62 183.835 1283.59 183.835C1287.12 183.835 1290.65 183.564 1293.37 183.292C1296.08 183.021 1299.07 182.206 1301.51 181.392C1303.96 180.577 1306.4 179.491 1308.57 178.133C1310.74 176.775 1312.92 175.146 1315.09 172.974C1315.63 172.431 1316.45 171.887 1317.26 171.616C1317.81 171.344 1318.62 171.073 1319.43 171.073Z" fill="#FBFBFC"/>
<path d="M1431.31 87.1656C1430.5 88.5233 1429.68 89.6095 1428.87 90.1526C1427.78 90.6957 1426.69 90.9672 1425.34 90.9672C1423.98 90.9672 1422.62 90.4241 1420.72 89.338C1419.09 88.2518 1417.19 87.1656 1414.75 85.8079C1412.57 84.4502 1409.86 83.364 1406.87 82.2778C1403.88 81.1916 1400.35 80.6485 1396.28 80.6485C1392.48 80.6485 1389.22 81.1916 1386.51 82.0063C1383.79 82.8209 1381.35 84.1786 1379.45 85.8079C1377.54 87.4371 1376.19 89.338 1375.1 91.5103C1374.29 93.6827 1373.74 96.1266 1373.74 98.842C1373.74 102.101 1374.56 105.088 1376.46 107.26C1378.36 109.432 1380.8 111.333 1384.06 112.962C1387.05 114.592 1390.85 115.949 1394.65 117.307C1398.73 118.665 1402.8 120.022 1406.87 121.38C1410.94 122.738 1415.02 124.367 1419.09 126.268C1423.16 128.169 1426.69 130.613 1429.68 133.328C1432.67 136.315 1435.38 139.845 1437.28 143.918C1439.19 147.992 1440 153.151 1440 159.125C1440 165.642 1438.91 171.616 1436.74 177.318C1434.57 183.021 1431.31 187.909 1426.97 192.253C1422.62 196.598 1417.46 199.857 1411.22 202.3C1404.97 204.744 1397.91 205.831 1390.04 205.831C1385.42 205.831 1381.07 205.287 1376.46 204.473C1371.84 203.658 1367.77 202.3 1363.7 200.671C1359.62 199.042 1355.82 197.141 1352.29 194.697C1348.76 192.253 1345.5 189.809 1342.79 186.822L1350.66 174.06C1351.48 173.245 1352.29 172.431 1353.38 171.616C1354.46 170.801 1355.55 170.801 1356.91 170.801C1358.54 170.801 1360.44 171.616 1362.34 172.974C1364.24 174.331 1366.41 175.961 1369.13 177.59C1371.84 179.219 1374.83 180.848 1378.36 182.206C1381.89 183.564 1386.23 184.379 1391.12 184.379C1398.73 184.379 1404.7 182.478 1408.77 178.948C1412.85 175.418 1415.02 170.258 1415.02 163.47C1415.02 159.668 1414.2 156.681 1412.3 154.237C1410.4 151.793 1407.96 149.892 1404.7 148.263C1401.71 146.634 1397.91 145.276 1394.11 144.19C1390.04 143.104 1385.96 141.746 1381.89 140.388C1377.82 139.031 1373.74 137.401 1369.67 135.501C1365.6 133.6 1362.07 131.156 1359.08 128.169C1356.09 125.182 1353.38 121.38 1351.48 117.035C1349.58 112.691 1348.76 106.988 1348.76 100.471C1348.76 95.3119 1349.85 90.1526 1352.02 85.2648C1354.19 80.377 1357.18 75.7607 1361.25 71.9591C1365.33 68.1575 1370.21 64.899 1375.92 62.7266C1381.89 60.2827 1388.41 59.1965 1396.01 59.1965C1404.43 59.1965 1412.3 60.5543 1419.63 63.2697C1426.97 65.9851 1432.94 69.5152 1437.83 74.403L1431.31 87.1656Z" fill="#FBFBFC"/>
<path d="M38.5593 0H288.109C309.561 0 326.668 17.1073 326.668 38.5593V227.826C326.668 249.006 309.289 266.385 288.109 266.385H38.5593C17.1073 266.385 0 249.278 0 227.826V38.5593C0 17.1073 17.1073 0 38.5593 0Z" fill="#07F49E"/>
<path fill-rule="evenodd" clip-rule="evenodd" d="M181.392 93.4106L207.732 68.4285H232.714V197.684H206.917V99.113L174.875 131.427C174.06 132.241 173.245 133.056 172.702 134.142C170.53 136.315 168.086 138.759 165.371 140.659L123.553 174.059H184.65V197.684H88.2521V169.172L141.746 124.91C144.462 122.737 147.177 120.022 149.893 117.307C152.608 114.591 153.966 111.061 153.966 107.259C153.966 102.915 152.337 99.6561 148.806 97.2122C145.276 94.7683 141.475 93.4106 136.859 93.4106C131.428 93.4106 127.083 95.0399 124.096 98.0269C121.109 101.014 119.208 105.087 118.937 109.432L90.1529 107.259C90.4244 100.742 92.0537 95.0399 94.4976 90.1521C96.9415 85.2643 100.472 81.1911 104.816 77.9326C109.161 74.674 114.049 72.2301 120.023 70.6009C125.997 68.9716 131.971 68.157 138.759 68.157C145.005 68.157 150.707 68.9716 156.41 70.6009C162.112 72.2301 166.728 74.674 170.53 77.661C174.603 80.9196 177.59 84.7212 180.034 89.609C180.577 90.9667 180.849 92.0529 181.392 93.4106Z" fill="#FBFBFC"/>
</svg>
